<svg width="21" height="22" viewBox="0 0 21 22" fill="none" xmlns="http://www.w3.org/2000/svg"><path d="M14.564 7.294a.188.188 0 0 0-.188-.188l-1.547.007L10.5 9.89 8.173 7.115l-1.549-.007a.187.187 0 0 0-.187.188c0 .044.016.087.044.122l3.05 3.633-3.05 3.63a.188.188 0 0 0 .143.31l1.55-.008 2.327-2.777 2.327 2.775 1.547.007a.187.187 0 0 0 .187-.187.195.195 0 0 0-.044-.122l-3.045-3.63 3.05-3.634a.188.188 0 0 0 .042-.121z" fill="#FF4D4F"></path><path d="M10.5.5C4.702.5 0 5.202 0 11s4.702 10.5 10.5 10.5S21 16.798 21 11 16.298.5 10.5.5zm0 19.219A8.72 8.72 0 0 1 1.781 11 8.72 8.72 0 0 1 10.5 2.281 8.72 8.72 0 0 1 19.219 11a8.72 8.72 0 0 1-8.719 8.719z" fill="#FF4D4F"></path></svg>
